<?xml version="1.0" encoding="utf-8"?>
<svg version="1.1" xmlns="http://www.w3.org/2000/svg" viewBox="208.8 335 195 49.1" xml:space="preserve">
<style type="text/css">
	.st0{fill:#FFFFFF;}
</style>
<g>
	<path class="st0" d="M230.1,349.1c-0.4,0.2-0.6,0.7-0.6,1.3v7.9c0,0,0,0.1-0.1,0.1c-0.5,0.4-1,0.7-1.6,0.9
		c-0.6,0.2-1.2,0.4-1.8,0.5c-0.6,0.1-1.3,0.2-1.9,0.2c-0.6,0-1.2,0-1.8,0c-0.9,0-1.8,0-2.8-0.1c-1.6-0.1-3.1-0.5-4.4-1.2
		c-1.3-0.7-2.4-1.6-3.4-2.7c-0.9-1.1-1.6-2.4-2.1-3.8c-0.5-1.4-0.7-3-0.7-4.5c0-1.8,0.3-3.5,1-4.9c0.7-1.4,1.6-2.6,2.7-3.6
		c1.1-1,2.5-1.7,4-2.2c1.5-0.5,3.2-0.7,4.9-0.7c0.9,0,1.9,0.1,2.8,0.2c0.9,0.1,1.9,0.2,2.8,0.3c0.4,0.1,0.8,0.1,1.2,0.2
		c0.4,0.1,0.8,0.1,1.2,0.2c0.1,0,0.1,0,0.1,0.1c0,0.7-0.1,1.5-0.2,2.2c-0.1,0.7-0.2,1.4-0.3,2.2c0,0.1,0,0.3-0.1,0.4
		c0,0.1,0,0.3-0.1,0.4c0,0.1,0,0.1-0.1,0.1c-0.1,0-0.1,0-0.1-0.1c-0.2-0.9-0.5-1.7-0.9-2.3c-0.4-0.6-1-1.2-1.6-1.6
		c-0.6-0.4-1.3-0.7-2.1-0.9c-0.8-0.2-1.6-0.3-2.5-0.3c-1.4,0-2.8,0.2-4,0.7c-1.2,0.5-2.3,1.1-3.2,2c-0.9,0.9-1.6,1.9-2.2,3.1
		c-0.5,1.2-0.8,2.5-0.8,4c0,1.6,0.3,3.1,0.9,4.5c0.6,1.4,1.4,2.6,2.4,3.7c1,1,2.2,1.9,3.6,2.5c1.4,0.6,2.9,0.9,4.5,0.9
		c0.7,0,1.4-0.1,2.1-0.2c0.7-0.2,1.3-0.5,1.8-1v-7c0-0.5-0.2-0.8-0.5-1c-0.3-0.2-0.7-0.3-1.1-0.5c-0.2,0-0.3-0.1-0.5-0.2
		c-0.2-0.1-0.3-0.1-0.5-0.2c-0.1,0-0.1-0.1-0.1-0.1c0-0.1,0.1-0.1,0.1-0.1c1.2,0,2.5,0,3.7,0c1.2,0,2.4,0.1,3.7,0.1l0,0.2
		C231,348.7,230.5,348.9,230.1,349.1z"/>
	<path class="st0" d="M246.4,357.4c-0.3,0-0.5,0-0.8-0.1c-0.2,0-0.3,0-0.5,0c-0.2,0-0.4,0-0.5,0c-0.5,0-1,0-1.4,0.1
		c-0.5,0-1,0.1-1.4,0.1c-0.1,0-0.1,0-0.1-0.1c0-0.1,0-0.1,0.1-0.2l1.2-0.6c-0.4-1-0.7-1.9-1.1-2.9c-0.4-0.9-0.8-1.9-1.1-2.9h-4.8
		c-0.1,0.3-0.3,0.7-0.5,1.2c-0.2,0.5-0.4,1.1-0.6,1.6c-0.2,0.6-0.4,1.1-0.5,1.6c-0.1,0.5-0.2,0.9-0.2,1.1c0,0.3,0.1,0.5,0.4,0.6
		c0.3,0.1,0.5,0.2,0.8,0.2v0.2c-0.4,0-0.8-0.1-1.2-0.1c-0.4,0-0.8,0-1.2,0c-0.4,0-0.8,0-1.2,0c-0.4,0-0.8,0.1-1.2,0.1
		c-0.1,0-0.1,0-0.1-0.1c0-0.1,0-0.1,0.1-0.2c1.1-0.1,1.9-0.7,2.4-1.8v0c0.6-1.5,1.2-3,1.7-4.5c0.6-1.5,1.1-3,1.6-4.6
		c0.4-1,0.7-2.1,1.1-3.1c0.4-1,0.7-2.1,1.1-3.1c0-0.1,0.1-0.1,0.1-0.1c0.1,0,0.1,0,0.1,0.1c0.1,0.3,0.2,0.6,0.3,0.9
		c0.1,0.3,0.2,0.6,0.3,0.9c0.8,2.3,1.7,4.6,2.7,7c0.9,2.3,2,4.6,3.2,6.9c0.2,0.5,0.6,0.8,0.9,1c0.4,0.2,0.8,0.3,1.3,0.4v0.2
		C247,357.4,246.7,357.4,246.4,357.4z M238.3,343.3c-0.4,1.1-0.7,2.2-1,3.2c-0.3,1-0.7,2.1-1.1,3.2h4L238.3,343.3z"/>
	<path class="st0" d="M269.7,357.4c-0.8,0-1.7,0-2.5,0c-0.8,0-1.6,0-2.5-0.1c-0.1,0-0.2-0.1-0.1-0.2c0,0,0-0.1,0-0.1
		c0,0,0-0.1,0-0.1c0.1-0.2,0.1-0.4,0.2-0.6c0.1-0.2,0.1-0.4,0.1-0.5c0-1.2-0.1-2.3-0.2-3.5c-0.1-1.1-0.2-2.3-0.4-3.5
		c-0.1-0.7-0.2-1.3-0.2-1.9c-0.1-0.5-0.1-1.2-0.2-1.9c-0.8,1.5-1.5,3-2.3,4.5c-0.7,1.5-1.4,3-2.2,4.6c-0.2,0.5-0.5,1-0.7,1.5
		c-0.2,0.5-0.5,1-0.7,1.5c0,0-0.1,0.1-0.1,0.1c0,0-0.1,0-0.1-0.1c-1-1.3-1.8-2.7-2.5-4.1c-0.7-1.4-1.4-2.8-2-4.1
		c-0.3-0.7-0.6-1.4-0.9-2c-0.3-0.6-0.6-1.2-0.9-1.9c-0.1,0.5-0.1,1-0.2,1.5c-0.1,0.5-0.1,1-0.2,1.4c-0.2,1.3-0.3,2.6-0.4,3.8
		c-0.1,1.3-0.2,2.5-0.2,3.8c0,0.4,0.1,0.6,0.3,0.8c0.2,0.1,0.4,0.3,0.7,0.4c0.1,0,0.2,0.1,0.3,0.1c0.1,0.1,0.2,0.1,0.3,0.1
		c0.1,0,0.1,0.1,0.1,0.2c0,0.1-0.1,0.1-0.1,0.1c-0.3,0-0.6,0-0.9,0c-0.3,0-0.6,0-0.9,0c-0.3,0-0.6,0-0.9,0c-0.3,0-0.6,0-0.9,0
		c-0.2,0-0.4,0-0.6,0c-0.2,0-0.4,0-0.6,0.1c-0.1,0-0.1,0-0.1-0.1c0-0.1,0-0.1,0.1-0.2c0.2,0,0.3-0.1,0.4-0.1c0.2,0,0.4-0.1,0.6-0.1
		c0.2-0.1,0.3-0.2,0.5-0.4c0-0.1,0.1-0.3,0.2-0.8c0.1-0.5,0.2-1.1,0.2-1.8c0.1-0.7,0.2-1.6,0.3-2.5c0.1-0.9,0.2-1.9,0.3-2.9
		c0.1-1,0.2-1.9,0.3-2.9c0.1-0.9,0.2-1.8,0.3-2.6c0.1-0.7,0.1-1.3,0.2-1.8c0-0.5,0.1-0.9,0.1-1.1c0-0.1,0-0.1,0.1-0.1
		c0.1,0,0.1,0,0.1,0c0.2,0.3,0.6,0.8,1.1,1.6c0.5,0.8,0.9,1.7,1.5,2.8s1.1,2.2,1.6,3.4c0.6,1.2,1.1,2.3,1.6,3.3
		c0.4,0.7,0.6,1.3,0.9,1.9c0.2,0.5,0.4,1,0.6,1.3c0.3-0.7,0.7-1.4,1-2.2c0.3-0.8,0.7-1.5,1-2.3c0.7-1.7,1.5-3.4,2.3-5.1
		c0.8-1.7,1.7-3.2,2.6-4.6c0,0,0.1-0.1,0.1,0c0,0,0.1,0,0.1,0.1c0,0.2,0.1,0.6,0.1,1c0,0.4,0.1,1,0.1,1.5c0.1,0.8,0.1,1.6,0.2,2.5
		c0.1,0.9,0.2,1.8,0.3,2.8c0.1,1,0.2,1.9,0.3,2.8c0.1,0.9,0.2,1.7,0.3,2.5c0.1,0.7,0.2,1.4,0.3,1.9c0.1,0.5,0.2,0.8,0.3,0.9
		c0.2,0.3,0.4,0.5,0.7,0.6c0.2,0.1,0.5,0.2,0.7,0.2c0.1,0,0.3,0.1,0.5,0.1c0.2,0,0.3,0.1,0.5,0.1L269.7,357.4z"/>
	<path class="st0" d="M279.6,355.8c-0.1,0.4-0.1,0.9-0.2,1.4c0,0.1,0,0.1-0.1,0.1l0,0c-0.2,0.1-0.3,0.1-0.4,0.1c-0.5,0-1,0-1.4,0
		c-0.5,0-1,0-1.4,0c-0.4,0-0.8,0-1.2,0c-0.4,0-0.8,0-1.2,0c-0.6,0-1.1,0-1.7,0c-0.6,0-1.1,0-1.7,0v-0.2c0.3,0,0.6-0.1,0.8-0.2
		c0.2-0.1,0.3-0.3,0.5-0.5c0.1-0.2,0.2-0.4,0.2-0.7c0-0.3,0-0.5,0-0.8v-12.9c0-0.4-0.1-0.7-0.3-0.8c-0.2-0.1-0.4-0.2-0.6-0.3
		c-0.1,0-0.3-0.1-0.4-0.1c-0.2-0.1-0.3-0.1-0.5-0.2c0,0-0.1-0.1,0-0.1c0-0.1,0-0.1,0.1-0.1h8.8c0.1,0,0.2-0.1,0.3-0.1
		c0.1,0,0.2-0.1,0.3-0.1c0.1,0,0.2,0,0.2,0.1c-0.1,0.5-0.1,1-0.2,1.5c-0.1,0.5-0.2,0.9-0.3,1.4c0,0.1-0.1,0.1-0.1,0.1
		c-0.1,0-0.1,0-0.1-0.1c0-0.7-0.3-1.2-0.7-1.4c-0.5-0.2-1-0.3-1.7-0.3h-2.5v6.4h3.6c0.1,0,0.2,0,0.4-0.1c0.2-0.1,0.3-0.1,0.5-0.2
		c0.2-0.1,0.5-0.2,0.7-0.3c0.1,0,0.2,0,0.2,0.1c0,0.2,0,0.5-0.1,0.8c0,0.3-0.1,0.6-0.1,0.8c0,0.2-0.1,0.5-0.1,0.8
		c0,0.3-0.1,0.5-0.1,0.8c0,0.1,0,0.1-0.1,0.1c-0.1,0-0.1,0-0.1,0c-0.1-0.1-0.2-0.2-0.2-0.3c0-0.1-0.1-0.2-0.1-0.3
		c0-0.1-0.1-0.2-0.1-0.4c0-0.1-0.1-0.2-0.2-0.3c-0.1-0.1-0.3-0.2-0.6-0.2c-0.3-0.1-0.6-0.1-0.9-0.1c-0.3,0-0.6,0-0.9,0
		c-0.3,0-0.5,0-0.7,0h-0.9v6.4c0.3,0.5,0.7,0.8,1.3,1c0.6,0.2,1.1,0.4,1.7,0.4c0.7,0,1.3-0.2,1.8-0.6c0.5-0.4,0.8-0.9,1-1.6l0.2,0.1
		C279.8,354.9,279.7,355.4,279.6,355.8z"/>
	<path class="st0" d="M298.6,346.5C298.5,346.6,298.5,346.6,298.6,346.5c-0.1,0-0.1,0-0.1,0c0-0.4-0.1-0.7-0.3-0.8
		c-0.2-0.2-0.5-0.2-0.9-0.2c-0.2,0-0.3,0-0.5,0c-0.1,0-0.3,0-0.5,0.1c-0.1,0-0.2,0-0.4,0.1c-0.1,0-0.3,0-0.4,0v3.5h2.4
		c0.1,0,0.2,0,0.3-0.1s0.2-0.1,0.2-0.2c0,0,0.1,0,0.1,0c0,0,0,0,0,0.1c0,0.3-0.1,0.7-0.1,1c0,0.3-0.1,0.6-0.2,0.9c0,0,0,0.1-0.1,0
		c0,0-0.1,0-0.1-0.1c0-0.4-0.1-0.7-0.3-0.8c-0.2-0.1-0.5-0.2-0.9-0.2h-1.5v3.6c0,0.1,0,0.3,0.1,0.4c0.1,0.2,0.1,0.3,0.2,0.4
		c0.1,0.1,0.2,0.2,0.4,0.3c0.1,0.1,0.3,0.1,0.5,0.1v0.1h-0.1c-0.1,0-0.3,0-0.4,0c-0.1,0-0.2,0-0.4,0c-0.1,0-0.3,0-0.4,0
		c-0.1,0-0.2,0-0.4,0c-0.1,0-0.2,0-0.4,0c-0.1,0-0.2,0-0.4,0c-0.1,0-0.3,0-0.4,0c-0.1,0-0.3,0-0.4,0h-0.1c0,0-0.1,0-0.1-0.1
		c0,0,0-0.1,0-0.1c0.2,0,0.4-0.1,0.5-0.1c0.1-0.1,0.2-0.1,0.3-0.2c0.1-0.1,0.1-0.2,0.1-0.3c0-0.1,0-0.3,0-0.5v-7.4
		c0-0.3-0.1-0.4-0.2-0.5c-0.1-0.1-0.2-0.1-0.4-0.2c-0.1,0-0.1-0.1-0.2-0.1c-0.1,0-0.2-0.1-0.3-0.1c0,0,0-0.1,0-0.1c0,0,0,0,0.1,0
		c0.7,0,1.5,0.1,2.3,0.1h1.3c0.1,0,0.1,0,0.2,0c0.1,0,0.1,0,0.2,0c0.3,0,0.6,0,0.8,0c0.3,0,0.5-0.1,0.8-0.2c0,0,0.1,0,0.1,0
		c0,0,0,0.1,0,0.1L298.6,346.5z"/>
	<path class="st0" d="M395.7,337.8c0,0.7-0.1,1.4-0.3,2c0,0.1-0.1,0.1-0.1,0.1c-0.1,0-0.1,0-0.1-0.1c-0.1-0.5-0.3-1-0.5-1.3
		c-0.2-0.3-0.5-0.6-0.9-0.8c-0.3-0.2-0.7-0.3-1.2-0.4c-0.4-0.1-0.9-0.1-1.4-0.1h-82.8v19.1c0,0.9,0.3,1.6,0.8,2.2
		c0.6,0.6,1.2,1,2.1,1.1c0.1,0,0.1,0.1,0.1,0.1c0,0.1,0,0.1-0.1,0.1c-0.8-0.1-1.5-0.1-2.3-0.2c-0.8,0-1.6-0.1-2.3-0.1
		c-0.6,0-1.1,0-1.7,0c-0.6,0-1.1,0.1-1.7,0.1c-0.1,0-0.1,0-0.1-0.1c0-0.1,0-0.1,0.1-0.1c0.5-0.1,0.9-0.2,1.2-0.4
		c0.3-0.1,0.5-0.3,0.7-0.5c0.1-0.2,0.2-0.5,0.3-0.8c0-0.3,0-0.8,0-1.3v-19.3h-5.4c-0.7,0-1.3,0.2-1.8,0.7c-0.5,0.5-0.9,1-1.2,1.6
		c0,0.1-0.1,0.1-0.1,0.1c-0.1,0-0.1,0-0.1-0.1c0-0.2-0.1-0.4-0.1-0.6c0-0.4,0.1-0.9,0.2-1.3c0.1-0.4,0.2-0.8,0.4-1.3
		c0.1-0.2,0.1-0.4,0.2-0.6c0.1-0.2,0.1-0.4,0.2-0.6c0-0.1,0.1-0.2,0.2-0.1c0.5,0.3,0.9,0.5,1.3,0.5c0.4,0.1,0.9,0.1,1.5,0.1h93
		c0.2,0,0.4,0,0.6-0.1c0.2-0.1,0.4-0.1,0.6-0.1c0.1,0,0.2,0,0.4-0.1c0.1,0,0.3,0,0.4-0.1c0.1,0,0.1,0,0.1,0.1v0.3
		C395.7,336.4,395.7,337,395.7,337.8z"/>
	<path class="st0" d="M328.5,357.5c-1.1-0.1-2.2-0.1-3.3-0.1c-0.4,0-0.8,0-1.2,0c-0.4,0-0.8,0-1.2,0c-0.1,0-0.1,0-0.1-0.1
		c0-0.1,0-0.1,0.1-0.1c0.6-0.2,1.1-0.4,1.2-0.7c0.2-0.3,0.3-0.8,0.3-1.5v-6.5h-9.5v6.5c0,1.3,0.7,2,2,2.1c0.1,0,0.1,0,0.1,0.1
		c0,0.1,0,0.1-0.1,0.1c-0.3,0-0.7,0-1,0c-0.3,0-0.6,0-0.9,0c-0.2,0-0.5,0-0.8,0c-0.3,0-0.6,0-0.8,0c-0.2,0-0.5,0-0.8,0
		c-0.3,0-0.5,0-0.8,0c-0.1,0-0.2,0-0.3,0c-0.1,0-0.2,0-0.3,0c-0.1,0-0.1,0-0.1-0.1c0-0.1,0-0.1,0.1-0.1c0.3-0.1,0.6-0.1,0.8-0.2
		c0.2-0.1,0.4-0.2,0.5-0.3c0.1-0.1,0.2-0.3,0.2-0.5c0-0.2,0-0.5,0-0.8v-13.2c0-0.5-0.2-0.8-0.5-1c-0.4-0.2-0.8-0.4-1.2-0.4v-0.2
		c0.9,0.1,1.7,0.1,2.6,0.1c0.4,0,0.7,0,1.1,0c0.4,0,0.7,0,1.1,0h0.7c0.1,0,0.1,0,0.1,0.1c0,0.1,0,0.1-0.1,0.1c-0.4,0-0.7,0.1-1,0.3
		c-0.3,0.2-0.5,0.5-0.5,1v5.4h9.5v-5.3c0-0.5-0.1-0.8-0.4-0.9c-0.3-0.1-0.6-0.3-0.9-0.4c-0.1,0-0.2,0-0.2-0.1c-0.1,0-0.2,0-0.2-0.1
		c-0.1,0-0.1-0.1-0.1-0.1c0-0.1,0-0.1,0.1-0.1c1,0.1,2,0.1,2.9,0.1c0.4,0,0.8,0,1.3,0c0.4,0,0.8,0,1.3,0c0.1,0,0.1,0,0.1,0.1
		c0,0.1,0,0.1-0.1,0.1c-0.5,0.1-0.8,0.2-1.1,0.4c-0.3,0.2-0.4,0.5-0.4,1V355c0,0.7,0.2,1.2,0.5,1.6c0.3,0.4,0.8,0.6,1.5,0.7
		L328.5,357.5z"/>
	<path class="st0" d="M345.1,357.7c-0.4,0.1-0.8,0.1-1.1,0.1c-0.6,0-1.2-0.1-1.7-0.3c-0.5-0.2-0.9-0.5-1.3-0.9
		c-0.4-0.4-0.8-0.8-1.1-1.2c-0.3-0.5-0.7-0.9-1-1.4c-0.3-0.4-0.6-0.9-0.9-1.3c-0.3-0.4-0.7-0.8-1.1-1.1c-0.4-0.3-0.8-0.6-1.2-0.8
		c-0.4-0.2-0.9-0.3-1.5-0.3c-0.2,0-0.3,0-0.5,0c-0.1,0-0.3,0-0.5,0.1v4.4c0,0.6,0.2,1.1,0.5,1.5c0.4,0.4,0.8,0.7,1.4,0.7v0.2
		c-0.5,0-0.9-0.1-1.4-0.1c-0.5,0-0.9,0-1.4,0c-0.5,0-0.9,0-1.4,0.1c-0.4,0-0.9,0.1-1.4,0.2c-0.1,0-0.1,0-0.1-0.1c0-0.1,0-0.1,0-0.2
		c0.4-0.2,0.8-0.5,1.1-0.9c0.3-0.4,0.4-0.9,0.4-1.3v-12.4c0-0.5-0.2-0.9-0.5-1.3c-0.3-0.4-0.8-0.6-1.2-0.7c-0.1,0-0.1-0.1-0.1-0.1
		c0-0.1,0-0.1,0.1-0.1h6.1c0.6,0,1.3,0.1,1.9,0.2c0.6,0.2,1.2,0.4,1.6,0.7c0.5,0.3,0.9,0.8,1.1,1.3c0.3,0.5,0.4,1.2,0.4,1.9
		c0,1-0.3,1.9-0.8,2.8c-0.5,0.9-1.2,1.7-1.8,2.3c0.2,0.2,0.5,0.6,0.7,0.9c0.3,0.4,0.6,0.8,0.9,1.2c0.5,0.6,0.9,1.3,1.4,1.9
		c0.5,0.7,1,1.2,1.6,1.8c0.6,0.5,1.1,0.9,1.7,1.2c0.6,0.3,1.2,0.4,1.8,0.3l0.1,0.2C345.9,357.5,345.5,357.6,345.1,357.7z
		 M338.1,344.1c-0.2-0.5-0.4-1-0.7-1.5c-0.3-0.4-0.7-0.8-1.1-1.1c-0.5-0.3-1-0.4-1.6-0.4c-0.2,0-0.5,0-0.7,0c-0.2,0-0.5,0.1-0.7,0.2
		v7.7c0.4,0.1,0.7,0.1,1,0.1c0.3,0,0.7,0,1,0c1.2,0,2-0.3,2.4-0.9c0.4-0.6,0.7-1.5,0.7-2.6C338.4,345.2,338.3,344.7,338.1,344.1z"/>
	<path class="st0" d="M360.9,352.8c-0.5,1-1.1,1.9-1.9,2.7c-0.8,0.7-1.7,1.3-2.8,1.7c-1.1,0.4-2.2,0.6-3.4,0.6c-1,0-2-0.2-3-0.7
		c-1-0.5-2-1.1-2.9-1.9c-0.9-0.8-1.6-1.6-2.2-2.6c-0.6-1-0.9-2-0.9-2.9c0-1.5,0.1-2.8,0.4-3.9s0.7-2,1.4-2.8
		c0.6-0.8,1.4-1.4,2.5-1.9c1-0.5,2.3-0.9,3.7-1.2l0.4,0c1.3-0.1,2.6,0.1,3.7,0.6c1.1,0.5,2.1,1.2,3,2c0.8,0.9,1.5,1.9,2,3.1
		c0.5,1.2,0.7,2.5,0.7,3.8C361.6,350.7,361.4,351.8,360.9,352.8z M352.4,341c-0.3,0-0.5,0-0.8,0.1l0,15.7c0.3,0.1,0.5,0.1,0.8,0.1
		L352.4,341z M354.3,356.7c0.6-0.1,1.1-0.3,1.5-0.5c0.8-0.4,1.5-0.9,2-1.6c0.5-0.7,1-1.5,1.2-2.3c0.3-0.9,0.4-1.8,0.4-2.8
		c0-1-0.2-2-0.4-3c-0.3-1-0.7-1.9-1.3-2.7c-0.6-0.8-1.3-1.5-2.2-2c-0.4-0.2-0.8-0.4-1.3-0.5V356.7z M353.8,341.1
		c-0.3,0-0.5-0.1-0.8-0.1v15.9c0,0,0,0,0.1,0c0.2,0,0.5,0,0.7,0L353.8,341.1z M351.1,341.1c-0.5,0.1-0.9,0.2-1.3,0.4
		c-0.8,0.4-1.5,0.9-2.1,1.6c-0.6,0.7-1,1.4-1.3,2.3c-0.3,0.9-0.4,1.8-0.4,2.8c0,1,0.2,2.1,0.5,3.1c0.3,1,0.8,1.9,1.4,2.7
		c0.6,0.8,1.4,1.5,2.2,2c0.3,0.2,0.7,0.4,1.1,0.5L351.1,341.1z"/>
	<path class="st0" d="M380,340.8C380,340.7,380,340.8,380,340.8c-0.4,0.1-0.7,0.2-1,0.3c-0.3,0.1-0.5,0.3-0.5,0.7l0,7.5v1.3
		c0,1.2,0,2.4-0.1,3.6c0,1.2-0.1,2.3-0.2,3.5c0,0,0,0.1-0.1,0.1c-0.1,0-0.1,0-0.1,0c-1-0.8-2-1.8-3-2.7c-1-1-2-2-2.9-3
		c-1-1-1.9-2.1-2.8-3.1c-0.9-1-1.8-2.1-2.7-3.1c-0.3-0.3-0.5-0.6-0.8-0.9c-0.2-0.3-0.5-0.6-0.8-0.9c-0.1,0.6-0.1,1.1-0.1,1.6
		c0,0.8,0,1.6,0,2.4c0,0.8,0.1,1.6,0.1,2.4c0,0.8,0.1,1.6,0.1,2.4c0,0.8,0,1.6,0,2.4c0,0.4,0,0.6,0.1,0.9c0.1,0.2,0.1,0.4,0.2,0.5
		c0.1,0.1,0.2,0.2,0.3,0.3c0.1,0.1,0.3,0.1,0.4,0.1c0.2,0,0.3,0.1,0.5,0.1c0.2,0.1,0.4,0.2,0.6,0.3c0,0,0.1,0.1,0,0.1
		c0,0.1,0,0.1-0.1,0.1c-0.2,0-0.4,0-0.6-0.1c-0.2,0-0.4,0-0.6-0.1c-0.3,0-0.6-0.1-0.9-0.1c-0.3,0-0.6,0-0.9,0c-0.4,0-0.8,0-1.1,0.1
		c-0.4,0.1-0.8,0.1-1.2,0.2c-0.1,0-0.1,0-0.1-0.1c0-0.1,0-0.1,0-0.2c0.2-0.1,0.3-0.3,0.5-0.3c0.1-0.1,0.3-0.2,0.4-0.2
		c0.2-0.1,0.5-0.3,0.7-0.5c0.2-0.2,0.3-0.6,0.3-1v-14.5l0.2-0.5c0,0,0.1-0.1,0.1-0.1c0,0,0.1,0,0.1,0c2.3,2.3,4.4,4.6,6.6,6.9
		c2.1,2.3,4.3,4.6,6.4,7v-0.1c0-1,0-1.9,0-2.8c0-0.9,0-1.9,0-2.9c0-0.9,0-1.8-0.1-2.8c0-1,0-2,0-2.8c0-0.4,0-0.6-0.1-0.9
		c-0.1-0.2-0.2-0.4-0.3-0.5c-0.1-0.1-0.3-0.2-0.4-0.2c-0.1,0-0.3-0.1-0.4-0.1c-0.2,0-0.3,0-0.5-0.1c-0.1,0-0.3-0.1-0.4-0.2
		c0,0,0-0.1,0-0.2c0-0.1,0.1-0.1,0.1-0.1c0.5,0.1,0.9,0.1,1.3,0.1c0.4,0,0.9,0,1.3,0c0.3,0,0.5,0,0.8,0c0.3,0,0.6,0,0.9,0
		c0.1,0,0.2,0,0.3,0c0.1,0,0.2,0,0.3,0L380,340.8C380,340.8,380,340.8,380,340.8z"/>
	<path class="st0" d="M391.8,355.8c-0.1,0.4-0.1,0.9-0.2,1.4c0,0.1,0,0.1-0.1,0.1l0,0c-0.2,0.1-0.3,0.1-0.4,0.1c-0.5,0-1,0-1.4,0
		c-0.5,0-1,0-1.4,0c-0.4,0-0.8,0-1.2,0c-0.4,0-0.8,0-1.2,0c-0.6,0-1.1,0-1.7,0c-0.6,0-1.1,0-1.7,0v-0.2c0.3,0,0.6-0.1,0.8-0.2
		c0.2-0.1,0.3-0.3,0.4-0.5c0.1-0.2,0.2-0.4,0.2-0.7c0-0.3,0-0.5,0-0.8v-12.9c0-0.4-0.1-0.7-0.3-0.8c-0.2-0.1-0.4-0.2-0.6-0.3
		c-0.1,0-0.3-0.1-0.4-0.1c-0.2-0.1-0.3-0.1-0.5-0.2c0,0-0.1-0.1,0-0.1c0-0.1,0-0.1,0.1-0.1h8.8c0.1,0,0.2-0.1,0.3-0.1
		c0.1,0,0.2-0.1,0.3-0.1c0.1,0,0.2,0,0.2,0.1c-0.1,0.5-0.1,1-0.2,1.5c-0.1,0.5-0.2,0.9-0.3,1.4c0,0.1-0.1,0.1-0.1,0.1
		c-0.1,0-0.1,0-0.1-0.1c0-0.7-0.3-1.2-0.7-1.4c-0.5-0.2-1-0.3-1.7-0.3h-2.5v6.4h3.6c0.1,0,0.2,0,0.4-0.1c0.2-0.1,0.3-0.1,0.5-0.2
		c0.2-0.1,0.5-0.2,0.7-0.3c0.1,0,0.2,0,0.2,0.1c0,0.2,0,0.5-0.1,0.8c0,0.3-0.1,0.6-0.1,0.8c0,0.2-0.1,0.5-0.1,0.8
		c0,0.3-0.1,0.5-0.1,0.8c0,0.1,0,0.1-0.1,0.1c-0.1,0-0.1,0-0.1,0c-0.1-0.1-0.2-0.2-0.2-0.3c0-0.1-0.1-0.2-0.1-0.3
		c0-0.1-0.1-0.2-0.1-0.4c0-0.1-0.1-0.2-0.2-0.3c-0.1-0.1-0.3-0.2-0.6-0.2c-0.3-0.1-0.6-0.1-0.9-0.1c-0.3,0-0.6,0-0.9,0
		c-0.3,0-0.5,0-0.7,0h-0.9v6.4c0.3,0.5,0.8,0.8,1.3,1c0.6,0.2,1.1,0.4,1.7,0.4c0.7,0,1.3-0.2,1.8-0.6c0.5-0.4,0.8-0.9,1-1.6l0.2,0.1
		C391.9,354.9,391.8,355.4,391.8,355.8z"/>
	<path class="st0" d="M403.2,354.9c-0.4,0.6-0.9,1.1-1.5,1.5c-0.6,0.4-1.2,0.8-2,1c-0.7,0.2-1.4,0.4-2,0.4c-0.3,0-0.6,0-1-0.1
		c-0.3-0.1-0.7-0.2-0.9-0.4c-0.3-0.2-0.5-0.4-0.7-0.6c-0.2-0.3-0.3-0.6-0.3-1c0-0.2,0-0.5,0.1-0.7s0.1-0.5,0.1-0.7l0.2-0.7
		c0-0.1,0-0.1,0.1-0.1c0.1,0,0.1,0,0.1,0.1v0.5c0,0.4,0.1,0.8,0.3,1.1c0.2,0.3,0.4,0.6,0.7,0.9c0.3,0.2,0.6,0.4,1,0.5
		c0.4,0.1,0.8,0.2,1.2,0.2c0.4,0,0.8-0.1,1.1-0.2c0.4-0.1,0.7-0.3,1.1-0.5c0.3-0.2,0.6-0.5,0.8-0.9c0.2-0.3,0.3-0.7,0.3-1.1
		c0-0.4-0.1-0.8-0.3-1.2c-0.2-0.4-0.4-0.8-0.7-1.2c-0.3-0.4-0.7-0.8-1.1-1.2c-0.4-0.4-0.8-0.8-1.2-1.2c-0.4-0.4-0.9-0.8-1.3-1.3
		c-0.4-0.4-0.8-0.9-1.1-1.3c-0.3-0.4-0.6-0.9-0.8-1.4c-0.2-0.5-0.3-0.9-0.3-1.4c0-0.7,0.2-1.3,0.6-1.8c0.4-0.5,0.9-0.9,1.5-1.2
		c0.6-0.3,1.2-0.6,1.9-0.7c0.7-0.2,1.3-0.2,1.9-0.2c0.8,0,1.6,0.1,2.3,0.3c0.1,0,0.1,0.1,0.1,0.1c-0.1,1-0.2,2.1-0.4,3.1
		c0,0.1-0.1,0.1-0.1,0.1c-0.1,0-0.1,0-0.1-0.1c-0.2-0.7-0.5-1.3-0.9-1.9c-0.5-0.5-1.1-0.8-1.8-0.8c-0.8,0-1.4,0.3-2,0.8
		c-0.5,0.5-0.8,1.2-0.8,1.9c0,0.4,0.1,0.8,0.3,1.1c0.2,0.4,0.4,0.7,0.7,1c0.3,0.3,0.6,0.7,1,1c0.4,0.3,0.8,0.6,1.1,1
		c0.4,0.4,0.9,0.7,1.3,1.1c0.4,0.4,0.8,0.8,1.1,1.2c0.3,0.4,0.6,0.9,0.8,1.4c0.2,0.5,0.3,1,0.3,1.6
		C403.8,353.7,403.6,354.3,403.2,354.9z"/>
</g>
<path class="st0" d="M292.5,352c-0.3,0.6-0.6,1.1-1.1,1.5c-0.5,0.4-1,0.8-1.6,1c-0.6,0.2-1.2,0.4-1.9,0.4c-0.6,0-1.1-0.1-1.7-0.4
	c-0.6-0.3-1.1-0.6-1.6-1.1c-0.5-0.4-0.9-0.9-1.2-1.5c-0.3-0.6-0.5-1.1-0.5-1.7c0-0.9,0.1-1.6,0.2-2.2c0.2-0.6,0.4-1.1,0.8-1.6
	c0.4-0.4,0.8-0.8,1.4-1.1c0.6-0.3,1.3-0.5,2.1-0.7l0.2,0c0.8-0.1,1.5,0.1,2.1,0.3c0.6,0.3,1.2,0.7,1.7,1.2c0.5,0.5,0.9,1.1,1.1,1.8
	c0.3,0.7,0.4,1.4,0.4,2.2C293,350.8,292.8,351.4,292.5,352z M287.8,345.3c-0.2,0-0.3,0-0.4,0v8.9c0.1,0,0.3,0.1,0.4,0.1L287.8,345.3
	z M288.8,354.2c0.3-0.1,0.6-0.2,0.9-0.3c0.5-0.2,0.8-0.5,1.2-0.9c0.3-0.4,0.5-0.8,0.7-1.3c0.2-0.5,0.2-1,0.2-1.6
	c0-0.6-0.1-1.2-0.3-1.7s-0.4-1.1-0.8-1.6c-0.3-0.5-0.7-0.8-1.2-1.1c-0.2-0.1-0.5-0.2-0.7-0.3V354.2L288.8,354.2z M288.5,345.3
	c-0.1,0-0.3,0-0.4,0v9c0,0,0,0,0,0c0.1,0,0.3,0,0.4,0L288.5,345.3z M287,345.4c-0.3,0.1-0.5,0.1-0.8,0.2c-0.5,0.2-0.9,0.5-1.2,0.9
	c-0.3,0.4-0.6,0.8-0.7,1.3c-0.2,0.5-0.3,1-0.3,1.6c0,0.6,0.1,1.2,0.3,1.7c0.2,0.6,0.4,1.1,0.8,1.6c0.3,0.5,0.8,0.8,1.3,1.1
	c0.2,0.1,0.4,0.2,0.6,0.3L287,345.4z"/>
<g>
	<path class="st0" d="M272.2,380.8c0,0.8,0.3,1.4,0.8,1.8c0.4,0.3,0.9,0.5,1.5,0.5c0.5,0,1-0.2,1.5-0.5c0.6-0.4,0.9-0.8,0.9-1.4
		c0-0.5-0.2-1.1-0.7-1.7c-0.3-0.4-0.9-0.9-1.7-1.7c-0.8-0.7-1.4-1.3-1.6-1.7c-0.4-0.6-0.7-1.2-0.7-1.8c0-0.7,0.3-1.3,0.8-1.8
		c0.6-0.5,1.4-0.8,2.3-0.8c0.8,0,1.5,0.1,1.9,0.2c0.2,0.1,0.3,0.2,0.4,0.2l-0.4,2.1c0-0.4-0.1-0.8-0.4-1.2c-0.4-0.5-0.8-0.7-1.4-0.7
		c-0.7,0-1.2,0.1-1.5,0.4c-0.3,0.3-0.5,0.6-0.5,1.1c0,0.8,0.7,1.7,2.1,2.9c0.8,0.7,1.4,1.2,1.7,1.5c0.6,0.7,0.9,1.4,0.9,2.1
		c0,1.1-0.5,2-1.5,2.7c-0.8,0.5-1.7,0.8-2.5,0.8c-0.6,0-1.1-0.1-1.5-0.4c-0.2-0.1-0.4-0.3-0.5-0.4
		C271.9,382.4,272,381.7,272.2,380.8z"/>
	<path class="st0" d="M284.5,372l0.5-0.2l-0.5,2.2c0-0.2-0.1-0.4-0.2-0.7c-0.2-0.4-0.6-0.7-1.1-0.7h-2.3v4.5h2.5
		c0.5,0,0.9-0.1,1.2-0.4l-0.3,2.3c0-0.2-0.1-0.4-0.2-0.6c-0.3-0.4-0.7-0.6-1.3-0.6h-1.9v4.5c0.1,0.2,0.3,0.3,0.6,0.5
		c0.5,0.3,1,0.5,1.6,0.5c0.6,0,1.1-0.3,1.6-0.8c0.2-0.3,0.4-0.5,0.6-0.8l-0.2,2.1h-6.4c0.2-0.1,0.3-0.2,0.5-0.3
		c0.3-0.3,0.5-0.6,0.5-0.9c0-0.6,0-3.8,0-9.8c-0.2-0.4-0.6-0.6-1.2-0.8H284.5z"/>
	<path class="st0" d="M293.6,383.8c0.2-0.3,0.5-0.5,0.9-0.6l-1.5-4h-3.3l-1.3,3.8c0,0.2,0.2,0.4,0.5,0.6c0.2,0.1,0.3,0.1,0.5,0.2
		h-3.5c0.5-0.1,0.9-0.3,1.2-0.6c0.2-0.2,0.3-0.3,0.3-0.5l4.1-10.9c2.8,6.8,4.3,10.5,4.6,11c0.2,0.3,0.4,0.6,0.8,0.8
		c0.2,0.1,0.4,0.2,0.5,0.2H293.6z M292.8,378.5l-1.4-4.1l-1.5,4L292.8,378.5z"/>
	<path class="st0" d="M297.3,380.8c0,0.8,0.3,1.4,0.8,1.8c0.4,0.3,0.9,0.5,1.5,0.5c0.5,0,1-0.2,1.5-0.5c0.6-0.4,0.9-0.8,0.9-1.4
		c0-0.5-0.2-1.1-0.7-1.7c-0.3-0.4-0.9-0.9-1.7-1.7c-0.8-0.7-1.4-1.3-1.6-1.7c-0.4-0.6-0.7-1.2-0.7-1.8c0-0.7,0.3-1.3,0.8-1.8
		c0.6-0.5,1.4-0.8,2.3-0.8c0.8,0,1.5,0.1,1.9,0.2c0.2,0.1,0.3,0.2,0.4,0.2l-0.4,2.1c0-0.4-0.1-0.8-0.4-1.2c-0.4-0.5-0.8-0.7-1.4-0.7
		c-0.7,0-1.2,0.1-1.5,0.4c-0.3,0.3-0.5,0.6-0.5,1.1c0,0.8,0.7,1.7,2.1,2.9c0.8,0.7,1.4,1.2,1.7,1.5c0.6,0.7,0.9,1.4,0.9,2.1
		c0,1.1-0.5,2-1.5,2.7c-0.8,0.5-1.7,0.8-2.5,0.8c-0.6,0-1.1-0.1-1.5-0.4c-0.2-0.1-0.4-0.3-0.5-0.4
		C297.1,382.4,297.1,381.7,297.3,380.8z"/>
	<path class="st0" d="M310,371.8c1.4,0,2.7,0.6,3.8,1.7c1.3,1.2,2,2.8,2,4.5c0,1.7-0.7,3.2-2,4.3c-1.2,1-2.4,1.5-3.8,1.5
		c-1.5,0-2.8-0.4-4-1.3c-1.5-1.1-2.2-2.6-2.2-4.5c0-2.7,1-4.6,3.1-5.6C308,372,309,371.7,310,371.8z M305.3,377.8
		c0,1.6,0.4,2.9,1.2,3.8c0.6,0.7,1.3,1.1,2.2,1.4v-10.4c-0.9,0.3-1.6,0.7-2.2,1.4C305.7,374.9,305.3,376.2,305.3,377.8z
		 M309.5,372.5c-0.1,0-0.3,0-0.4,0.1v10.6c0.1,0,0.3,0.1,0.4,0.1V372.5z M310.1,383.2c0.1,0,0.3,0,0.5,0v-10.6
		c-0.2,0-0.3-0.1-0.5-0.1V383.2z M310.9,383.1c0.9-0.2,1.6-0.6,2.2-1.2c0.8-0.9,1.2-2.2,1.2-3.8c0-1.7-0.4-3-1.2-4
		c-0.6-0.7-1.3-1.2-2.2-1.4V383.1z"/>
	<path class="st0" d="M327.8,371.8c-0.2,0.1-0.3,0.1-0.5,0.3c-0.3,0.2-0.5,0.5-0.5,0.8v10.9l0,0v0l-8.7-9.1v7.9
		c0,0.3,0.2,0.6,0.5,0.8c0.2,0.1,0.3,0.2,0.5,0.3h-3.4c0.2-0.1,0.3-0.1,0.5-0.3c0.3-0.2,0.5-0.5,0.5-0.8v-10.9l8.7,9.2v-8.1
		c0-0.3-0.2-0.6-0.5-0.8c-0.2-0.1-0.3-0.2-0.5-0.3H327.8z"/>
	<path class="st0" d="M340.4,371c-0.8,0.1-1.5,0.3-2.2,0.6s-1.3,0.8-1.9,1.3s-1,1.1-1.4,1.8s-0.7,1.4-0.8,2.1
		c0.2-0.1,0.4-0.3,0.6-0.4s0.5-0.2,0.7-0.3s0.5-0.2,0.8-0.2s0.6-0.1,0.9-0.1c0.5,0,1,0.1,1.5,0.3s0.8,0.5,1.2,0.8s0.6,0.8,0.8,1.2
		s0.3,1,0.3,1.5c0,0.6-0.1,1.2-0.4,1.8s-0.6,1-1,1.4s-0.9,0.7-1.5,1s-1.1,0.4-1.8,0.4c-0.7,0-1.3-0.1-1.8-0.4s-1-0.6-1.4-1.1
		s-0.7-1-0.9-1.6s-0.3-1.3-0.3-2c0-0.7,0.1-1.5,0.3-2.2s0.5-1.4,0.8-2s0.8-1.2,1.3-1.7s1.1-0.9,1.7-1.3s1.4-0.6,2.1-0.8
		s1.6-0.3,2.5-0.3V371z M334,377.3c-0.1,0.3-0.1,0.6-0.1,0.9s0,0.6,0,0.9c0,0.6,0.1,1.1,0.2,1.7s0.3,1,0.5,1.4s0.5,0.7,0.8,1
		s0.7,0.4,1.2,0.4c0.3,0,0.6-0.1,0.9-0.2s0.5-0.4,0.7-0.6s0.4-0.6,0.5-1s0.2-0.8,0.2-1.2c0-0.5-0.1-1-0.2-1.5s-0.3-0.9-0.6-1.2
		s-0.5-0.6-0.9-0.8s-0.7-0.3-1.1-0.3c-0.2,0-0.3,0-0.5,0.1s-0.4,0.1-0.6,0.2s-0.4,0.1-0.5,0.2S334.1,377.2,334,377.3z"/>
</g>
</svg>
